<svg fill="#2496ED" role="img" viewBox="0 0 34 24" xmlns="http://www.w3.org/2000/svg"><title>Docker</title><path d="M19.763 10.715h2.953a0.259 0.259 0 0 0 0.26-0.258V7.828a0.259 0.259 0 0 0-0.26-0.26h-2.953a0.258 0.258 0 0 0-0.257 0.258v2.631c0 0.142 0.116 0.258 0.257 0.258m-4.116-7.567h2.951a0.259 0.259 0 0 0 0.26-0.259V0.258a0.259 0.259 0 0 0-0.26-0.258h-2.951a0.258 0.258 0 0 0-0.258 0.258v2.631c0 0.142 0.114 0.258 0.258 0.258m0 3.785h2.951a0.261 0.261 0 0 0 0.26-0.26V4.043a0.259 0.259 0 0 0-0.26-0.258h-2.951a0.258 0.258 0 0 0-0.258 0.258v2.629c0 0.142 0.114 0.258 0.258 0.26m-4.083 0h2.954a0.259 0.259 0 0 0 0.256-0.26V4.043a0.258 0.258 0 0 0-0.257-0.258H11.565a0.258 0.258 0 0 0-0.258 0.258v2.629c0 0.142 0.116 0.258 0.258 0.26m-4.13 0h2.953a0.259 0.259 0 0 0 0.257-0.26V4.043a0.258 0.258 0 0 0-0.257-0.258H7.435a0.259 0.259 0 0 0-0.26 0.258v2.629c0 0.142 0.117 0.258 0.26 0.26m8.212 3.783h2.951a0.259 0.259 0 0 0 0.26-0.258V7.828a0.259 0.259 0 0 0-0.26-0.26h-2.951a0.258 0.258 0 0 0-0.258 0.258v2.631c0 0.142 0.114 0.258 0.258 0.258m-4.083 0h2.954a0.258 0.258 0 0 0 0.256-0.258V7.828a0.258 0.258 0 0 0-0.256-0.26h-2.954a0.258 0.258 0 0 0-0.257 0.258v2.631c0 0.142 0.116 0.258 0.258 0.258m-4.13 0h2.953a0.258 0.258 0 0 0 0.257-0.258V7.828a0.258 0.258 0 0 0-0.256-0.26h-2.954a0.259 0.259 0 0 0-0.26 0.26v2.629c0 0.142 0.117 0.258 0.26 0.258m-4.07 0h2.955a0.258 0.258 0 0 0 0.256-0.258V7.828a0.258 0.258 0 0 0-0.256-0.26h-2.955a0.258 0.258 0 0 0-0.256 0.258v2.631c0 0.142 0.114 0.258 0.258 0.258M33.392 9.06c-0.091-0.071-0.936-0.711-2.723-0.711-0.471 0.001-0.942 0.042-1.407 0.121-0.346-2.369-2.304-3.526-2.391-3.576l-0.48-0.277-0.315 0.456c-0.396 0.61-0.683 1.285-0.853 1.992-0.321 1.352-0.125 2.623 0.562 3.709-0.829 0.463-2.16 0.576-2.43 0.585H1.324a1.047 1.047 0 0 0-1.045 1.042 15.853 15.853 0 0 0 0.964 5.661c0.759 1.99 1.888 3.456 3.359 4.353 1.644 1.008 4.32 1.584 7.351 1.585 1.37 0.004 2.736-0.12 4.083-0.371a17.068 17.068 0 0 0 5.327-1.935c1.366-0.79 2.592-1.795 3.637-2.977 1.745-1.976 2.784-4.177 3.558-6.132h0.308c1.912 0 3.087-0.765 3.735-1.406 0.431-0.408 0.766-0.906 0.985-1.458l0.137-0.401Z"/></svg>