<svg fill="#635BFF" role="img" viewBox="0 0 27 24" xmlns="http://www.w3.org/2000/svg"><title>Expo</title><path d="M0.172 20.979c0.048 0.589 0.255 1.181 0.797 1.975 0.644 0.943 1.75 1.461 2.558 0.63 0.544-0.561 6.435-10.858 9.274-14.762a0.845 0.845 0 0 1 1.387 0c2.839 3.903 8.73 14.2 9.274 14.762 0.807 0.831 1.914 0.313 2.558-0.63 0.633-0.927 0.809-1.577 0.808-2.273 0-0.473-9.174-17.547-10.098-18.968-0.889-1.366-1.16-1.664-2.662-1.713h-1.147c-1.503 0.049-1.774 0.345-2.663 1.713C9.354 3.104 0.538 19.506 0.172 20.63Z"/></svg>