<svg fill="#00ADD8" role="img" viewBox="0 0 65 24" xmlns="http://www.w3.org/2000/svg"><title>Go</title><path d="M5.227 7.266c-0.126 0-0.155-0.062-0.093-0.158l0.658-0.844c0.062-0.094 0.217-0.155 0.343-0.155h11.167c0.123 0 0.155 0.094 0.094 0.188l-0.533 0.811c-0.062 0.096-0.219 0.187-0.313 0.187zM0.506 10.143c-0.126 0-0.158-0.062-0.094-0.155l0.656-0.846c0.062-0.094 0.219-0.155 0.345-0.155h14.261c0.126 0 0.187 0.094 0.156 0.187l-0.249 0.749c-0.032 0.126-0.155 0.187-0.281 0.188z m7.569 2.877c-0.126 0-0.158-0.094-0.093-0.187l0.436-0.782c0.062-0.094 0.187-0.187 0.313-0.187h6.256c0.126 0 0.187 0.094 0.187 0.22l-0.062 0.749c0 0.126-0.126 0.219-0.219 0.219z m32.466-6.317c-1.97 0.501-3.316 0.875-5.255 1.376-0.471 0.123-0.501 0.155-0.91-0.313-0.466-0.533-0.811-0.875-1.467-1.188-1.973-0.969-3.881-0.688-5.661 0.468-2.128 1.376-3.223 3.41-3.19 5.942 0.029 2.503 1.751 4.566 4.221 4.912 2.128 0.281 3.908-0.468 5.318-2.061 0.281-0.348 0.53-0.723 0.843-1.162H28.405c-0.656 0-0.814-0.407-0.595-0.937 0.407-0.969 1.156-2.596 1.596-3.41a0.843 0.843 0 0 1 0.781-0.5h11.384c-0.062 0.846-0.062 1.689-0.187 2.535a13.338 13.338 0 0 1-2.565 6.129c-2.251 2.971-5.193 4.818-8.913 5.316-3.065 0.407-5.913-0.187-8.412-2.061-2.315-1.753-3.63-4.069-3.973-6.946-0.407-3.41 0.594-6.475 2.658-9.165 2.222-2.907 5.161-4.754 8.758-5.407 2.939-0.535 5.755-0.187 8.287 1.529 1.66 1.097 2.845 2.596 3.63 4.411 0.187 0.281 0.062 0.439-0.313 0.535m10.353 17.294c-2.848-0.064-5.444-0.878-7.634-2.754a9.81 9.81 0 0 1-3.378-6.036c-0.562-3.533 0.407-6.662 2.535-9.446 2.283-3.003 5.035-4.566 8.758-5.22 3.191-0.562 6.194-0.254 8.913 1.593 2.471 1.686 4.004 3.972 4.411 6.973 0.53 4.224-0.688 7.663-3.597 10.605-2.064 2.096-4.598 3.407-7.508 4.001-0.843 0.161-1.686 0.187-2.5 0.284z m7.441-12.634c-0.029-0.41-0.029-0.723-0.091-1.036-0.562-3.097-3.41-4.845-6.381-4.159-2.91 0.656-4.786 2.503-5.474 5.441-0.562 2.441 0.626 4.912 2.877 5.916 1.721 0.749 3.44 0.653 5.1-0.188 2.471-1.285 3.814-3.287 3.972-5.976z"/></svg>