<svg fill="#0AE448" role="img" viewBox="0 0 66 24" xmlns="http://www.w3.org/2000/svg"><title>GSAP</title><path d="M27.095 0C29.319 0.014 31.006 0.648 32.108 1.883 33.15 3.056 33.651 4.751 33.596 6.917L33.558 7.083C33.536 7.132 33.504 7.181 33.463 7.219 33.381 7.298 33.27 7.341 33.155 7.341L28.641 7.341C28.347 7.341 28.099 7.102 28.099 6.811 28.099 5.657 27.751 5.02 27.038 4.879L26.712 4.849C25.781 4.849 25.177 5.423 25.161 6.424 25.142 7.54 25.773 8.555 27.569 10.297 29.931 12.517 30.88 14.484 30.834 17.08 30.761 21.282 27.904 24 23.561 24 21.343 24 19.648 23.404 18.519 22.234 17.376 21.045 16.853 19.301 16.962 17.048 16.968 16.933 17.014 16.822 17.095 16.743 17.177 16.664 17.289 16.62 17.4 16.62L22.07 16.62C22.135 16.623 22.197 16.639 22.257 16.667 22.314 16.697 22.366 16.737 22.407 16.789 22.442 16.83 22.467 16.879 22.483 16.933 22.497 16.985 22.499 17.042 22.489 17.097 22.437 17.907 22.581 18.514 22.899 18.852 23.104 19.069 23.392 19.181 23.746 19.181 24.608 19.181 25.114 18.569 25.134 17.507 25.15 16.59 24.856 15.782 23.278 14.155 21.234 12.158 19.403 10.095 19.46 6.852 19.495 4.969 20.241 3.249 21.566 2.005 22.965 0.694 24.875 0 27.095 0ZM11.359 0.076C13.392 0.06 14.989 0.686 16.099 1.94 17.275 3.265 17.871 5.263 17.874 7.878 17.871 7.992 17.822 8.101 17.74 8.182 17.659 8.261 17.55 8.307 17.436 8.307L12.535 8.307C12.451 8.305 12.366 8.269 12.306 8.21 12.246 8.147 12.214 8.063 12.211 7.978 12.173 6.283 11.699 5.404 10.763 5.301L10.57 5.29C8.693 5.293 7.585 7.842 6.997 9.257 6.176 11.235 5.757 13.38 5.838 15.518 5.879 16.514 6.04 17.913 6.981 18.493 7.819 19.007 9.014 18.667 9.738 18.095 10.459 17.527 11.041 16.541 11.286 15.644 11.321 15.518 11.321 15.423 11.289 15.377 11.272 15.355 11.24 15.344 11.202 15.336L9.83 15.325C9.765 15.325 9.697 15.309 9.637 15.282 9.577 15.254 9.523 15.214 9.479 15.162 9.446 15.124 9.422 15.075 9.411 15.026 9.4 14.974 9.4 14.922 9.411 14.873L10.271 11.135C10.314 10.941 10.486 10.797 10.698 10.77L10.698 10.762 18.957 10.762C18.976 10.762 18.997 10.762 19.014 10.765 19.229 10.792 19.381 10.993 19.378 11.211L19.378 11.222 18.519 14.952C18.472 15.165 18.26 15.32 18.018 15.32L16.981 15.32C16.946 15.32 16.908 15.333 16.878 15.355 16.848 15.377 16.826 15.41 16.815 15.445 15.857 18.694 14.559 20.931 12.848 22.272 11.389 23.415 9.596 23.948 7.196 23.948 5.041 23.948 3.588 23.254 2.355 21.886 0.728 20.073 0.056 17.113 0.464 13.54 1.199 6.838 4.671 0.076 11.359 0.076ZM57.534 0.435C63.003 0.435 65.735 2.917 65.651 7.812 65.55 13.548 62.056 17.766 56.796 18.74 56.048 18.876 55.289 18.931 54.529 18.925L51.988 18.914C51.947 18.914 51.906 18.931 51.876 18.961 51.846 18.988 51.83 19.029 51.83 19.069 51.83 19.097 51.836 19.124 51.852 19.148 51.865 19.173 51.887 19.192 51.912 19.205L54.072 20.332C54.249 20.424 54.32 20.58 54.279 20.778 54.265 20.841 53.729 23.263 53.716 23.317 53.67 23.529 53.498 23.652 53.251 23.652L48.616 23.652C48.551 23.652 48.483 23.638 48.423 23.611 48.363 23.584 48.309 23.54 48.265 23.491 48.233 23.45 48.208 23.404 48.197 23.355 48.184 23.306 48.187 23.252 48.197 23.2L53.357 0.776C53.408 0.541 53.629 0.438 53.825 0.438L57.534 0.435ZM47.348 0.468C47.4 0.49 47.449 0.52 47.487 0.558 47.525 0.599 47.561 0.648 47.58 0.699 47.602 0.751 47.61 0.805 47.61 0.86L47.58 23.208C47.588 23.26 47.585 23.314 47.572 23.366 47.558 23.418 47.531 23.464 47.498 23.505 47.457 23.551 47.408 23.589 47.351 23.614 47.297 23.638 47.237 23.652 47.177 23.649L42.244 23.649C42.189 23.652 42.132 23.638 42.08 23.619 42.029 23.597 41.98 23.565 41.942 23.527 41.904 23.486 41.871 23.439 41.852 23.388 41.83 23.336 41.819 23.282 41.819 23.224L41.925 21.056C41.931 20.819 41.925 20.754 41.787 20.737L41.602 20.732 36.938 20.732C36.6 20.732 36.576 20.762 36.456 21.072L35.487 23.404C35.4 23.57 35.226 23.649 34.965 23.649L30.08 23.649C29.784 23.649 29.572 23.355 29.683 23.08L39.8 0.77C39.868 0.637 39.972 0.435 40.206 0.435L47.188 0.435C47.242 0.435 47.297 0.446 47.348 0.468ZM42.524 6.517C42.502 6.43 42.431 6.438 42.374 6.552 42.334 6.634 42.295 6.721 42.265 6.805L38.772 15.467C38.753 15.521 38.739 15.565 38.728 15.597 38.725 15.614 38.723 15.633 38.725 15.649 38.728 15.665 38.736 15.682 38.744 15.695 38.755 15.709 38.769 15.72 38.785 15.728 38.799 15.736 38.815 15.744 38.831 15.744L41.748 15.782C42.072 15.755 42.089 15.739 42.121 15.41 42.127 15.293 42.54 6.618 42.524 6.517ZM55.074 5.42C55.033 5.42 54.995 5.437 54.965 5.467 54.935 5.494 54.919 5.535 54.916 5.576 54.916 5.603 54.924 5.63 54.938 5.654 54.954 5.679 54.973 5.701 54.997 5.714 55.033 5.733 57.134 6.841 57.289 6.925 57.403 6.988 57.406 7.097 57.368 7.284 57.348 7.369 55.898 13.747 55.901 13.752 55.909 13.761 55.953 13.782 56.17 13.782L56.268 13.782C58.704 13.684 60.031 10.805 60.08 8.011 60.105 6.501 59.591 5.573 58.657 5.437L58.464 5.42 55.074 5.42Z"/></svg>