<svg fill="#61DAFB" role="img" viewBox="0 0 27 24" xmlns="http://www.w3.org/2000/svg"><title>React</title><path d="M16.004 12.003a2.511 2.511 0 0 1-2.51 2.51 2.511 2.511 0 0 1-2.51-2.51 2.511 2.511 0 0 1 2.509-2.511 2.511 2.511 0 0 1 2.511 2.511z m2.973-12.003c-1.511 0-3.489 1.078-5.488 2.944-1.999-1.856-3.977-2.922-5.487-2.922-0.46 0-0.879 0.104-1.242 0.313-1.544 0.89-1.89 3.665-1.093 7.146C2.249 8.537 0.026 10.224 0.026 12.003c0 1.785 2.234 3.477 5.663 4.525-0.79 3.495-0.438 6.274 1.109 7.163 0.359 0.21 0.775 0.309 1.237 0.309 1.51 0 3.489-1.078 5.489-2.946 1.999 1.857 3.977 2.923 5.487 2.922 0.46 0 0.879-0.101 1.242-0.308 1.543-0.889 1.89-3.664 1.092-7.147C24.751 15.475 26.974 13.784 26.974 12.003c0-1.785-2.234-3.477-5.663-4.527 0.79-3.492 0.438-6.273-1.109-7.164-0.357-0.207-0.772-0.311-1.226-0.312z m-0.006 1.224v0.007c0.253 0 0.456 0.049 0.627 0.142 0.748 0.429 1.072 2.06 0.82 4.159-0.061 0.516-0.159 1.061-0.281 1.617-1.078-0.265-2.252-0.468-3.489-0.6-0.741-1.016-1.51-1.939-2.285-2.747 1.788-1.662 3.466-2.573 4.61-2.577z m-10.969 0.022c1.136 0 2.823 0.907 4.614 2.56-0.77 0.808-1.538 1.726-2.268 2.742-1.243 0.131-2.419 0.335-3.495 0.604-0.126-0.55-0.219-1.082-0.285-1.594-0.258-2.097 0.061-3.728 0.801-4.162 0.213-0.101 0.449-0.143 0.633-0.149z m5.481 3.425c0.511 0.525 1.022 1.114 1.527 1.756-0.494-0.022-0.999-0.038-1.51-0.038-0.516 0-1.027 0.011-1.527 0.038 0.494-0.642 1.005-1.231 1.51-1.757zM13.5 7.619c0.831 0 1.658 0.038 2.472 0.105 0.456 0.653 0.9 1.351 1.329 2.088 0.418 0.719 0.797 1.448 1.143 2.185-0.346 0.735-0.725 1.471-1.138 2.19-0.427 0.741-0.868 1.446-1.325 2.099-0.817 0.071-1.646 0.11-2.481 0.11-0.831 0-1.658-0.039-2.472-0.104-0.456-0.653-0.9-1.352-1.329-2.088-0.418-0.719-0.797-1.448-1.143-2.185 0.34-0.738 0.725-1.474 1.138-2.194 0.427-0.741 0.868-1.444 1.325-2.098 0.817-0.072 1.646-0.11 2.481-0.11z m-4.081 0.286c-0.269 0.423-0.539 0.857-0.791 1.302-0.253 0.438-0.488 0.878-0.713 1.318-0.298-0.737-0.55-1.471-0.759-2.186 0.719-0.168 1.476-0.318 2.263-0.433z m8.151 0c0.78 0.116 1.533 0.258 2.253 0.434-0.202 0.71-0.455 1.439-0.742 2.17-0.225-0.438-0.46-0.879-0.718-1.318-0.253-0.44-0.522-0.869-0.792-1.286z m3.439 0.757c0.543 0.168 1.06 0.356 1.544 0.56 1.945 0.831 3.202 1.918 3.202 2.78-0.006 0.862-1.263 1.954-3.207 2.779-0.472 0.202-0.988 0.384-1.522 0.553-0.314-1.076-0.725-2.196-1.235-3.346 0.505-1.142 0.909-2.257 1.218-3.328z m-15.04 0.005c0.312 1.078 0.724 2.197 1.235 3.346-0.505 1.142-0.912 2.257-1.219 3.328-0.543-0.168-1.06-0.357-1.538-0.561-1.945-0.828-3.202-1.916-3.202-2.778 0-0.862 1.258-1.956 3.202-2.78 0.472-0.202 0.988-0.384 1.522-0.555z m13.112 4.806c0.298 0.738 0.55 1.473 0.759 2.187-0.719 0.176-1.478 0.326-2.263 0.438 0.269-0.421 0.539-0.856 0.791-1.301 0.253-0.438 0.488-0.885 0.715-1.324z m-11.166 0.022c0.225 0.44 0.46 0.879 0.719 1.319 0.258 0.438 0.522 0.867 0.791 1.284-0.78-0.115-1.533-0.258-2.252-0.434 0.202-0.707 0.456-1.439 0.741-2.17zM20.147 16.849c0.126 0.554 0.225 1.087 0.285 1.598 0.258 2.097-0.061 3.728-0.801 4.163-0.165 0.101-0.38 0.144-0.633 0.144-1.136 0-2.823-0.906-4.614-2.56 0.77-0.808 1.538-1.725 2.268-2.74 1.243-0.132 2.419-0.337 3.495-0.606z m-13.283 0.011c1.078 0.263 2.252 0.466 3.489 0.597 0.741 1.016 1.51 1.939 2.285 2.747-1.791 1.665-3.472 2.577-4.615 2.577-0.247-0.006-0.456-0.056-0.621-0.149-0.748-0.427-1.072-2.059-0.82-4.157 0.061-0.516 0.159-1.06 0.281-1.615z m5.12 0.719c0.494 0.022 0.999 0.038 1.51 0.038 0.516 0 1.027-0.011 1.527-0.038-0.494 0.642-1.005 1.229-1.51 1.757-0.511-0.528-1.022-1.115-1.527-1.757z"/></svg>