<svg fill="#B7410E" role="img" viewBox="0 0 25 24" xmlns="http://www.w3.org/2000/svg"><title>Rust</title><path d="M24.339 11.703l-1.008-0.624a13.731 13.731 0 0 0-0.028-0.293l0.865-0.807a0.348 0.348 0 0 0-0.115-0.579l-1.107-0.414a8.499 8.499 0 0 0-0.087-0.285l0.691-0.959a0.346 0.346 0 0 0-0.226-0.545l-1.167-0.19a9.361 9.361 0 0 0-0.141-0.262l0.491-1.076a0.344 0.344 0 0 0-0.028-0.337 0.349 0.349 0 0 0-0.3-0.154l-1.185 0.042a6.747 6.747 0 0 0-0.188-0.227l0.273-1.153a0.347 0.347 0 0 0-0.417-0.418l-1.154 0.273a14.023 14.023 0 0 0-0.228-0.188l0.042-1.184a0.344 0.344 0 0 0-0.491-0.329l-1.076 0.492c-0.087-0.048-0.174-0.095-0.262-0.141l-0.191-1.168A0.348 0.348 0 0 0 16.757 0.951l-0.96 0.691a8.49 8.49 0 0 0-0.285-0.086l-0.414-1.107a0.348 0.348 0 0 0-0.579-0.115l-0.807 0.867a9.297 9.297 0 0 0-0.293-0.029L12.795 0.164a0.346 0.346 0 0 0-0.59 0l-0.624 1.008a13.743 13.743 0 0 0-0.293 0.028L10.48 0.334a0.346 0.346 0 0 0-0.579 0.115l-0.414 1.107c-0.096 0.027-0.19 0.057-0.285 0.086L8.243 0.951a0.348 0.348 0 0 0-0.545 0.226L7.507 2.345a9.361 9.361 0 0 0-0.262 0.141l-1.077-0.492a0.346 0.346 0 0 0-0.49 0.329l0.042 1.184a7.985 7.985 0 0 0-0.228 0.188L4.339 3.422a0.347 0.347 0 0 0-0.418 0.417l0.272 1.154c-0.063 0.075-0.126 0.151-0.187 0.227l-1.185-0.042a0.346 0.346 0 0 0-0.328 0.49l0.492 1.077a9.17 9.17 0 0 0-0.141 0.262l-1.167 0.19a0.348 0.348 0 0 0-0.226 0.544l0.691 0.959a13.307 13.307 0 0 0-0.087 0.286l-1.107 0.414a0.348 0.348 0 0 0-0.115 0.578l0.865 0.808a9.297 9.297 0 0 0-0.028 0.293l-1.008 0.624a0.344 0.344 0 0 0 0 0.59l1.008 0.623c0.008 0.098 0.018 0.196 0.028 0.294l-0.865 0.808a0.346 0.346 0 0 0 0.115 0.578l1.107 0.415c0.027 0.096 0.057 0.191 0.087 0.285l-0.691 0.959a0.345 0.345 0 0 0 0.227 0.545l1.167 0.19c0.046 0.088 0.092 0.175 0.141 0.262l-0.492 1.076a0.346 0.346 0 0 0 0.329 0.491l1.183-0.042c0.062 0.077 0.124 0.153 0.188 0.228l-0.272 1.154a0.346 0.346 0 0 0 0.418 0.416l1.153-0.271c0.075 0.064 0.151 0.126 0.228 0.186l-0.042 1.185a0.344 0.344 0 0 0 0.491 0.327l1.076-0.49c0.087 0.049 0.174 0.095 0.262 0.141l0.191 1.167a0.348 0.348 0 0 0 0.545 0.227l0.959-0.691a9.302 9.302 0 0 0 0.285 0.087l0.414 1.107a0.345 0.345 0 0 0 0.579 0.115l0.808-0.866c0.097 0.011 0.195 0.02 0.293 0.03l0.624 1.007a0.347 0.347 0 0 0 0.59 0l0.624-1.007c0.098-0.009 0.196-0.018 0.293-0.03l0.807 0.866a0.348 0.348 0 0 0 0.579-0.115l0.414-1.107a8.465 8.465 0 0 0 0.285-0.087l0.959 0.691a0.345 0.345 0 0 0 0.545-0.227l0.191-1.167c0.088-0.046 0.175-0.093 0.262-0.141l1.077 0.49a0.347 0.347 0 0 0 0.49-0.327l-0.042-1.185a6.729 6.729 0 0 0 0.227-0.186l1.153 0.271a0.347 0.347 0 0 0 0.418-0.416l-0.272-1.154c0.063-0.075 0.126-0.151 0.187-0.228l1.185 0.041a0.344 0.344 0 0 0 0.328-0.49l-0.491-1.076c0.048-0.087 0.095-0.174 0.141-0.262l1.167-0.19a0.348 0.348 0 0 0 0.226-0.545l-0.691-0.959 0.087-0.285 1.107-0.414a0.346 0.346 0 0 0 0.115-0.579l-0.865-0.808c0.01-0.097 0.02-0.195 0.028-0.294l1.008-0.623a0.344 0.344 0 0 0 0-0.59z m-6.744 8.358a0.714 0.714 0 0 1 0.299-1.396 0.714 0.714 0 1 1-0.3 1.396z m-0.342-2.315a0.649 0.649 0 0 0-0.772 0.5l-0.357 1.669c-1.104 0.501-2.329 0.78-3.621 0.78a8.74 8.74 0 0 1-3.696-0.814l-0.358-1.669a0.648 0.648 0 0 0-0.772-0.499l-1.473 0.316a8.724 8.724 0 0 1-0.762-0.899h7.17c0.081 0 0.136-0.014 0.136-0.088v-2.537c0-0.074-0.054-0.088-0.136-0.088h-2.097v-1.608h2.269c0.207 0 1.107 0.059 1.394 1.209 0.09 0.353 0.288 1.505 0.423 1.874 0.135 0.413 0.684 1.239 1.269 1.238h3.573a0.749 0.749 0 0 0 0.13-0.013 8.79 8.79 0 0 1-0.812 0.953zM7.335 20.027a0.714 0.714 0 1 1-0.3-1.397 0.714 0.714 0 0 1 0.3 1.397zM4.615 8.996a0.714 0.714 0 1 1-1.304 0.58 0.714 0.714 0 0 1 1.304-0.58z m-0.835 1.982l1.535-0.682a0.65 0.65 0 0 0 0.33-0.859l-0.316-0.715h1.244v5.604H4.064a8.778 8.778 0 0 1-0.283-3.349z m6.736-0.544V8.783h2.961c0.153 0 1.08 0.177 1.08 0.87 0 0.575-0.711 0.782-1.295 0.781z m10.761 1.487c0 0.219-0.008 0.436-0.024 0.651h-0.9c-0.09 0-0.127 0.059-0.127 0.148v0.413c0 0.973-0.549 1.185-1.03 1.239-0.458 0.052-0.965-0.191-1.028-0.472-0.27-1.519-0.72-1.844-1.431-2.404 0.882-0.56 1.8-1.386 1.8-2.493 0-1.194-0.819-1.946-1.378-2.316-0.783-0.516-1.65-0.62-1.883-0.619H5.966a8.768 8.768 0 0 1 4.909-2.771l1.097 1.151a0.648 0.648 0 0 0 0.919 0.021l1.227-1.174a8.778 8.778 0 0 1 6.007 4.277l-0.841 1.899a0.652 0.652 0 0 0 0.33 0.859l1.619 0.719c0.028 0.288 0.043 0.577 0.042 0.872z m-9.304-9.602a0.713 0.713 0 1 1 0.985 1.031 0.714 0.714 0 0 1-0.985-1.031z m8.342 6.712a0.711 0.711 0 0 1 0.94-0.363 0.714 0.714 0 1 1-0.941 0.364z"/></svg>